<?xml version="1.0" encoding="UTF-8" standalone="no"?>
<!-- Created with Inkscape (http://www.inkscape.org/) -->

<svg
   width="1600"
   height="800"
   viewBox="0 0 1600 800"
   version="1.1"
   id="svg5"
   sodipodi:docname="outline.svg"
   inkscape:export-filename="D:\Programming\Projects\CarPanel\resources\outline.png"
   inkscape:export-xdpi="96"
   inkscape:export-ydpi="96"
   inkscape:version="1.1 (c68e22c387, 2021-05-23)"
   xmlns:inkscape="http://www.inkscape.org/namespaces/inkscape"
   xmlns:sodipodi="http://sodipodi.sourceforge.net/DTD/sodipodi-0.dtd"
   xmlns="http://www.w3.org/2000/svg"
   xmlns:svg="http://www.w3.org/2000/svg">
  <sodipodi:namedview
     id="namedview9"
     pagecolor="#ffffff"
     bordercolor="#111111"
     borderopacity="1"
     inkscape:pageshadow="0"
     inkscape:pageopacity="0"
     inkscape:pagecheckerboard="1"
     showgrid="false"
     inkscape:zoom="0.66125"
     inkscape:cx="799.24386"
     inkscape:cy="400"
     inkscape:window-width="2560"
     inkscape:window-height="1377"
     inkscape:window-x="-8"
     inkscape:window-y="-8"
     inkscape:window-maximized="1"
     inkscape:current-layer="svg5" />
  <defs
     id="defs2" />
  <g
     id="layer1"
     style="display:inline"
     transform="translate(-1.9479428,-0.76070911)">
    <path
       id="path15766"
       style="fill:#000000;fill-opacity:1;stroke:#000000;stroke-width:1.0077px;stroke-linecap:butt;stroke-linejoin:miter;stroke-opacity:1"
       d="m 801.94794,20.067488 c 0,0 112.6919,1.894575 148.74866,4.484054 49.11009,3.526926 9.97781,-0.0961 114.2783,6.927017 24.269,1.634162 62.0066,5.635404 85.3287,8.010016 57.4748,5.851972 96.9428,13.536301 141.9799,25.810306 49.044,13.36599 134.8865,49.912329 159.7937,66.273379 33.7557,22.17352 58.1101,45.2936 85.4344,81.54594 23.5601,31.25813 50.131,95.82972 56.2596,179.04015 6.8103,92.46818 8.0156,149.77799 4.4677,201.88196 -3.5659,52.36713 -3.4994,48.60506 -9.6632,72.82593 -4.2489,16.69622 -5.3645,18.59063 -12.9478,36.73082 -6.7059,16.04129 -16.5184,29.83504 -28.9838,38.13657 -23.9609,15.95701 -38.0742,20.70099 -58.5935,26.84048 -26.8118,8.02225 -27.8864,8.73579 -56.2934,11.33156 -13.9393,1.27375 -47.6793,2.54952 -76.3281,0.36143 -100.7378,-7.69394 -155.8656,-20.4265 -208.8804,-27.91851 -121.8893,-17.22524 -202.44874,-19.89816 -262.83401,-20.39545 l -81.76675,-0.67337 m 5e-5,-711.212282 c 0,0 -112.69189,1.894575 -148.74866,4.484054 -49.11009,3.526926 -9.97782,-0.0961 -114.27829,6.927017 -24.26898,1.634162 -62.00656,5.635404 -85.32868,8.010016 -57.4748,5.851972 -96.94276,13.536301 -141.97989,25.810306 -49.04398,13.36599 -134.88647,49.912329 -159.79364,66.273379 -33.75579,22.17352 -58.110192,45.2936 -85.434503,81.54594 -23.56004,31.25813 -50.13098,95.82972 -56.259504,179.04015 -6.8103665,92.46818 -8.0156454,149.77799 -4.4676965,201.88196 3.5658689,52.36713 3.4993735,48.60506 9.6631595,72.82593 4.248899,16.69622 5.364453,18.59063 12.94779,36.73082 6.705924,16.04129 16.518362,29.83504 28.983815,38.13657 23.960867,15.95701 38.074153,20.70099 58.593439,26.84048 26.81183,8.02225 27.88643,8.73579 56.29347,11.33156 13.93931,1.27375 47.67924,2.54952 76.32807,0.36143 100.73779,-7.69394 155.86557,-20.4265 208.88041,-27.91851 121.88931,-17.22524 202.44869,-19.89816 262.83397,-20.39545 l 81.76674,-0.67337" />
  </g>
</svg>
